<svg xmlns="http://www.w3.org/2000/svg" width="128" height="128" class="icon" viewBox="0 0 1024 1024">
<g stroke-width="2.00" fill="none" stroke-linecap="butt">
<path stroke="#0e1313" d="&#10;  M 649.32 469.08&#10;  C 650.14 467.56 651.79 466.22 653.23 464.45&#10;  C 656.98 459.86 661.08 454.64 663.99 449.99&#10;  C 667.51 444.35 670.29 440.36 673.06 435.16&#10;  Q 682.57 417.29 688.15 398.18&#10;  Q 691.64 386.24 692.55 378.47&#10;  Q 693.01 374.48 693.57 371.12&#10;  Q 694.73 364.22 694.68 353.18&#10;  A 5.20 4.13 -46.6 0 1 694.75 352.37&#10;  Q 695.00 350.92 695.02 348.99&#10;  Q 695.20 332.12 692.12 314.48&#10;  Q 684.27 269.63 654.95 234.02&#10;  Q 621.46 193.34 571.52 175.43&#10;  C 561.04 171.67 551.87 168.84 541.87 167.60&#10;  Q 535.87 166.86 532.28 165.94&#10;  A 2.00 1.81 -21.2 0 1 531.81 165.76&#10;  Q 529.72 164.66 529.67 161.99&#10;  Q 529.48 150.47 529.56 139.00&#10;  Q 529.69 119.83 529.61 71.69&#10;  Q 529.60 62.70 527.83 59.11&#10;  Q 524.33 51.98 515.00 51.99&#10;  Q 374.66 52.03 109.75 52.03&#10;  Q 76.59 52.03 63.49 51.78&#10;  Q 54.97 51.62 50.51 58.90&#10;  C 48.21 62.65 48.33 67.69 48.34 72.50&#10;  Q 48.44 124.11 48.43 129.75&#10;  Q 48.37 162.44 48.51 517.65&#10;  C 48.51 522.33 48.17 530.12 48.70 536.19&#10;  Q 49.54 545.91 59.26 549.02&#10;  A 2.86 2.66 -33.1 0 0 60.07 549.16&#10;  Q 61.78 549.20 64.50 549.21&#10;  Q 101.29 549.32 481.27 549.27&#10;  Q 508.01 549.26 510.20 549.11&#10;  Q 514.24 548.83 515.26 548.24&#10;  Q 523.03 543.74 524.52 534.66&#10;  A 2.50 2.50 0.0 0 1 526.50 532.61&#10;  Q 530.94 531.71 535.24 531.20&#10;  C 562.00 528.00 586.94 518.04 610.07 503.48&#10;  A 2.24 2.22 53.0 0 1 612.92 503.89&#10;  L 634.51 528.17&#10;  A 2.25 2.25 0.0 0 1 634.68 530.93&#10;  Q 634.31 531.47 632.83 533.54&#10;  Q 628.60 539.45 633.57 544.90&#10;  Q 642.92 555.16 648.48 561.55&#10;  Q 651.63 565.18 652.75 566.29&#10;  C 655.63 569.17 657.50 572.08 660.47 575.06&#10;  Q 661.20 575.79 664.40 579.17&#10;  C 666.37 581.24 667.54 583.28 669.42 585.07&#10;  Q 671.06 586.63 673.27 589.25&#10;  Q 681.45 598.95 694.92 613.46&#10;  C 698.58 617.39 702.58 622.62 706.71 626.29&#10;  Q 717.54 635.91 733.06 636.43&#10;  Q 735.10 636.50 737.39 636.10&#10;  C 748.36 634.18 757.76 627.21 762.85 618.05&#10;  C 769.27 606.50 768.98 593.10 761.83 581.70&#10;  Q 759.92 578.67 755.46 574.08&#10;  Q 750.77 569.25 748.73 566.77&#10;  C 742.83 559.59 734.15 551.56 728.20 544.13&#10;  Q 727.21 542.89 715.70 530.46&#10;  Q 710.59 524.94 705.97 519.60&#10;  C 701.25 514.16 695.61 508.61 690.65 502.79&#10;  Q 687.04 498.57 684.64 496.53&#10;  Q 682.59 494.79 679.33 494.78&#10;  C 677.21 494.78 675.18 496.01 673.01 496.07&#10;  A 2.87 2.84 68.1 0 1 670.83 495.13&#10;  Q 662.72 486.17 661.40 484.95&#10;  C 658.03 481.81 655.18 477.57 651.10 473.92&#10;  Q 649.82 472.77 649.19 470.07&#10;  A 1.36 1.36 0.0 0 1 649.32 469.08"/>
<path stroke="#0e1313" d="&#10;  M 447.23 523.59&#10;  Q 448.18 523.20 449.24 523.48&#10;  A 0.45 0.45 0.0 0 0 449.80 523.15&#10;  L 449.80 523.13&#10;  A 0.42 0.42 0.0 0 0 449.52 522.63&#10;  Q 427.90 515.23 408.77 502.88&#10;  Q 404.60 500.19 403.78 499.50&#10;  Q 401.34 497.43 398.99 495.85&#10;  C 394.56 492.86 389.53 487.96 385.55 484.68&#10;  Q 383.31 482.83 379.38 478.90&#10;  Q 361.40 460.88 349.78 439.78&#10;  Q 342.87 427.24 338.52 416.03&#10;  Q 329.96 393.98 326.96 368.20&#10;  C 326.48 364.03 326.78 360.24 326.38 356.42&#10;  C 325.76 350.57 325.98 342.70 326.24 337.75&#10;  Q 326.39 334.92 327.50 324.41&#10;  Q 328.22 317.63 329.46 311.16&#10;  Q 337.18 271.12 362.09 238.56&#10;  Q 375.60 220.89 392.12 207.38&#10;  Q 437.80 170.01 497.36 165.50&#10;  C 499.92 165.31 502.59 165.64 504.86 164.84&#10;  A 4.06 4.05 -5.1 0 0 507.51 161.68&#10;  Q 507.82 159.82 507.83 157.50&#10;  Q 508.13 120.02 507.84 83.42&#10;  C 507.81 79.99 507.31 78.66 505.04 76.54&#10;  Q 503.78 75.36 499.66 75.31&#10;  Q 489.28 75.19 481.88 75.29&#10;  A 0.17 0.17 0.0 0 0 481.81 75.61&#10;  Q 482.57 76.00 483.52 76.04&#10;  Q 489.88 76.30 496.21 76.87"/>
<path stroke="#0e1313" d="&#10;  M 81.29 76.88&#10;  L 79.60 76.64&#10;  A 0.14 0.14 0.0 0 1 79.48 76.50&#10;  A 0.13 0.13 0.0 0 1 79.60 76.37&#10;  L 90.44 75.85&#10;  A 0.25 0.24 -2.6 0 0 90.67 75.61&#10;  L 90.67 75.59&#10;  A 0.28 0.27 87.5 0 0 90.41 75.35&#10;  L 76.43 75.25&#10;  A 1.56 1.39 -48.4 0 0 76.09 75.29&#10;  C 71.21 76.45 70.93 80.21 70.90 84.48&#10;  Q 70.81 100.38 70.91 300.30&#10;  Q 70.95 382.77 70.88 428.70&#10;  Q 70.88 435.05 70.93 436.82&#10;  C 71.16 443.55 70.76 450.47 70.84 457.08&#10;  Q 71.00 471.22 70.92 474.87&#10;  C 70.59 490.52 71.11 507.16 70.70 520.99&#10;  A 3.82 3.80 22.0 0 0 71.95 523.92&#10;  Q 74.79 526.52 78.76 526.45&#10;  C 97.51 526.09 116.33 526.67 132.74 526.48&#10;  C 148.78 526.30 166.74 526.76 183.99 526.58&#10;  Q 197.02 526.45 204.50 526.62&#10;  Q 205.60 526.65 234.75 526.56&#10;  Q 331.39 526.27 443.25 526.36&#10;  Q 444.66 526.36 448.83 525.76&#10;  A 0.36 0.35 -5.6 0 0 449.13 525.40&#10;  L 449.11 525.06&#10;  A 0.16 0.15 89.8 0 0 448.97 524.91&#10;  L 441.20 524.27"/>
<path stroke="#0e1313" d="&#10;  M 367.78 416.46&#10;  Q 371.88 425.25 379.98 437.74&#10;  Q 380.81 439.02 381.12 439.79&#10;  A 2.95 2.84 -78.3 0 0 381.68 440.68&#10;  C 384.97 444.27 388.46 449.08 392.33 453.30&#10;  Q 421.63 485.24 462.93 498.91&#10;  Q 470.87 501.54 478.82 502.97&#10;  Q 488.07 504.63 495.01 505.39&#10;  Q 508.65 506.89 524.73 505.19&#10;  Q 528.21 504.82 534.23 504.03&#10;  Q 539.49 503.34 543.66 502.31&#10;  C 551.95 500.26 558.12 499.29 564.82 496.48&#10;  Q 577.30 491.24 581.44 489.20&#10;  Q 609.32 475.42 630.14 451.12&#10;  Q 655.55 421.46 664.92 383.53&#10;  C 665.77 380.07 665.96 377.15 666.68 374.18&#10;  Q 667.33 371.49 667.75 367.12&#10;  Q 668.35 361.03 668.63 354.76&#10;  Q 670.20 320.77 657.79 290.11&#10;  Q 653.45 279.38 647.47 269.70&#10;  Q 640.67 258.69 634.24 251.00&#10;  Q 614.76 227.69 587.86 212.21&#10;  C 570.88 202.43 551.37 196.08 531.10 193.61&#10;  Q 521.25 192.41 517.26 192.25&#10;  Q 467.33 190.22 425.40 215.97&#10;  C 420.97 218.68 417.89 221.24 413.73 224.22&#10;  Q 409.72 227.08 405.34 230.92&#10;  Q 393.84 240.99 384.21 253.20&#10;  Q 375.67 264.03 368.89 277.28&#10;  Q 365.38 284.15 362.33 292.55&#10;  Q 358.18 303.97 357.15 308.35&#10;  Q 353.89 322.24 352.75 336.58&#10;  Q 351.52 352.06 353.11 365.13&#10;  C 354.64 377.74 356.70 388.93 361.00 400.28&#10;  Q 365.00 410.87 365.39 411.67&#10;  Q 367.71 416.31 367.78 416.46"/>
<path stroke="#7a3930" d="&#10;  M 680.95 517.43&#10;  L 653.63 542.03&#10;  A 0.31 0.31 0.0 0 0 653.61 542.47&#10;  L 717.56 613.49&#10;  A 18.50 18.26 48.0 0 0 743.51 615.02&#10;  L 744.15 614.44&#10;  A 18.50 18.26 48.0 0 0 745.34 588.48&#10;  L 681.39 517.45&#10;  A 0.31 0.31 0.0 0 0 680.95 517.43"/>
<path stroke="#0e1313" d="&#10;  M 256.57 178.57&#10;  A 3.18 3.17 -52.5 0 1 253.04 179.04&#10;  Q 250.03 177.53 246.78 177.38&#10;  Q 239.81 177.05 234.88 179.01&#10;  A 2.83 2.79 38.3 0 1 233.41 179.17&#10;  Q 230.36 178.68 229.69 178.06&#10;  Q 220.38 169.39 213.95 163.66&#10;  A 3.30 3.29 28.3 0 1 212.95 160.35&#10;  Q 215.73 149.77 211.44 140.33&#10;  Q 210.30 137.80 208.46 136.05&#10;  Q 199.76 127.79 187.62 129.50&#10;  Q 181.99 130.29 179.94 131.47&#10;  Q 169.02 137.81 168.53 150.04&#10;  C 168.41 153.14 168.41 156.51 169.55 159.72&#10;  C 172.26 167.42 178.32 174.13 186.27 175.66&#10;  C 192.17 176.80 197.44 175.70 203.08 173.67&#10;  A 0.98 0.98 0.0 0 1 204.06 173.87&#10;  Q 209.74 178.96 214.76 184.31&#10;  Q 216.22 185.86 219.04 187.57&#10;  A 3.70 3.68 -69.7 0 1 220.76 191.33&#10;  Q 219.81 197.02 219.72 197.70&#10;  Q 218.31 208.39 223.93 217.00&#10;  A 1.56 1.56 0.0 0 1 223.95 218.67&#10;  C 221.61 222.46 218.02 226.02 215.45 229.48&#10;  Q 209.10 237.99 206.06 241.31&#10;  Q 203.99 243.56 201.02 243.18&#10;  C 189.98 241.75 178.62 246.41 173.67 256.66&#10;  C 169.69 264.89 169.25 274.85 173.41 282.83&#10;  Q 178.35 292.31 188.27 295.99&#10;  C 205.61 302.44 225.05 290.46 226.30 271.92&#10;  Q 226.99 261.58 220.45 252.78&#10;  A 1.82 1.78 19.7 0 1 220.14 252.14&#10;  Q 219.42 249.38 220.21 248.18&#10;  Q 223.49 243.23 236.18 226.56&#10;  A 1.97 1.95 -68.1 0 1 237.93 225.80&#10;  Q 245.04 226.52 252.08 224.88&#10;  A 4.75 4.56 -62.8 0 0 253.01 224.56&#10;  Q 267.46 217.67 268.11 201.12&#10;  Q 268.17 199.58 266.30 192.71&#10;  A 2.27 2.19 50.6 0 1 266.42 191.23&#10;  L 267.39 189.12&#10;  A 2.07 2.01 -9.6 0 1 267.91 188.41&#10;  L 284.39 173.46&#10;  A 0.86 0.86 0.0 0 0 284.50 173.35&#10;  L 286.77 170.72&#10;  A 1.03 1.01 -70.7 0 1 287.50 170.36&#10;  L 291.05 170.19&#10;  A 1.33 1.30 57.1 0 1 291.75 170.35&#10;  C 299.73 174.62 312.15 175.82 320.11 170.37&#10;  Q 335.71 159.70 332.79 140.50&#10;  C 331.11 129.50 323.09 121.72 312.78 118.64&#10;  C 308.88 117.48 302.48 117.65 299.22 118.37&#10;  Q 287.23 121.02 281.35 131.58&#10;  C 276.82 139.73 277.81 147.36 279.70 156.03&#10;  A 2.88 2.86 63.1 0 1 278.80 158.81&#10;  L 256.57 178.57"/>
<path stroke="#0e1313" d="&#10;  M 327.66 482.57&#10;  Q 328.47 480.82 328.33 475.47&#10;  C 328.14 468.63 323.71 469.38 317.92 469.37&#10;  Q 299.95 469.33 128.01 469.39&#10;  Q 125.27 469.39 122.52 469.20&#10;  Q 120.32 469.05 120.33 466.73&#10;  Q 120.36 429.87 120.37 321.75&#10;  Q 120.37 318.12 120.35 314.49&#10;  C 120.34 311.82 120.73 307.94 117.70 307.09&#10;  C 115.72 306.53 105.84 305.10 105.83 309.28&#10;  Q 105.79 392.05 105.83 481.74&#10;  Q 105.83 483.89 108.17 484.73&#10;  A 1.80 1.80 0.0 0 0 108.79 484.84&#10;  Q 225.20 484.89 322.50 484.80&#10;  Q 326.20 484.80 327.16 483.43&#10;  A 5.73 5.38 -16.6 0 0 327.66 482.57"/>
<path stroke="#0e1313" d="&#10;  M 306.72 328.80&#10;  Q 305.20 331.39 300.41 342.71&#10;  Q 297.21 350.28 294.93 356.90&#10;  Q 286.44 381.59 276.50 402.26&#10;  Q 272.94 409.67 267.45 416.93&#10;  C 265.13 419.99 261.40 423.71 257.73 421.79&#10;  Q 255.26 420.49 252.97 417.62&#10;  C 246.72 409.77 241.59 399.68 237.06 389.96&#10;  Q 235.23 386.02 228.38 369.73&#10;  Q 225.07 361.86 221.78 358.61&#10;  Q 214.14 351.07 203.51 355.43&#10;  A 4.26 4.22 12.2 0 0 202.32 356.19&#10;  Q 198.41 359.78 197.71 360.97&#10;  Q 192.51 369.66 188.70 379.64&#10;  Q 186.05 386.57 185.11 388.77&#10;  Q 181.80 396.60 178.17 403.92&#10;  Q 172.31 415.73 163.83 425.35&#10;  Q 154.99 435.38 144.67 437.31&#10;  C 139.45 438.28 135.69 440.38 136.86 445.98&#10;  C 138.01 451.43 142.27 451.75 147.16 451.25&#10;  Q 150.10 450.95 153.20 449.65&#10;  Q 167.14 443.80 176.41 432.12&#10;  C 185.13 421.13 192.09 408.25 197.45 394.55&#10;  C 200.95 385.63 203.76 378.38 208.48 370.12&#10;  A 1.90 1.90 0.0 0 1 209.20 369.40&#10;  C 211.48 368.08 212.88 369.54 214.16 371.73&#10;  C 218.44 379.04 221.83 386.96 224.55 393.71&#10;  Q 225.46 395.96 231.50 408.60&#10;  Q 233.91 413.63 235.99 417.03&#10;  Q 239.79 423.23 241.25 425.05&#10;  Q 246.55 431.62 249.26 433.51&#10;  C 258.27 439.77 268.08 437.52 274.99 429.75&#10;  C 282.57 421.24 287.21 412.00 292.42 400.95&#10;  Q 295.23 394.99 306.02 367.52&#10;  Q 307.17 364.59 307.15 363.61&#10;  Q 306.99 355.69 307.62 345.93&#10;  C 308.01 339.82 307.80 332.94 308.09 329.23&#10;  A 0.74 0.74 0.0 0 0 306.72 328.80"/>
</g>
<path fill="#000000" d="&#10;  M 611.76 505.10&#10;  A 0.84 0.83 53.0 0 0 610.67 504.94&#10;  Q 573.20 529.52 527.85 534.07&#10;  A 1.83 1.83 0.0 0 0 526.24 535.54&#10;  Q 524.18 546.12 514.76 550.44&#10;  A 4.78 4.57 28.6 0 1 513.35 550.82&#10;  Q 508.40 551.29 506.50 551.29&#10;  Q 236.36 551.14 65.75 551.27&#10;  C 63.11 551.27 59.95 551.35 57.53 550.43&#10;  Q 49.66 547.41 47.23 539.42&#10;  A 4.43 4.02 37.5 0 1 47.05 538.43&#10;  Q 46.78 534.19 46.79 530.25&#10;  Q 46.87 487.39 46.81 65.57&#10;  Q 46.81 60.49 50.78 55.77&#10;  Q 54.21 51.68 59.03 50.48&#10;  Q 60.96 50.00 69.00 50.00&#10;  Q 330.61 50.02 514.50 49.99&#10;  C 518.53 49.99 521.18 50.52 524.33 52.75&#10;  Q 531.48 57.81 531.28 67.98&#10;  Q 531.13 76.12 531.20 161.01&#10;  Q 531.20 164.23 533.88 164.62&#10;  Q 544.31 166.13 554.50 168.29&#10;  Q 557.77 168.98 568.71 172.66&#10;  C 604.04 184.53 634.72 206.30 657.93 235.11&#10;  C 678.20 260.27 690.52 289.38 694.98 321.01&#10;  Q 698.34 344.90 695.64 368.43&#10;  Q 689.09 425.38 651.58 468.88&#10;  Q 650.22 470.46 651.71 472.05&#10;  Q 660.95 481.90 672.50 494.62&#10;  A 1.36 1.35 51.9 0 0 674.26 494.84&#10;  Q 681.33 490.10 687.60 496.97&#10;  C 702.77 513.57 715.13 527.68 731.71 545.78&#10;  Q 752.39 568.35 755.41 571.62&#10;  Q 763.21 580.03 765.36 584.43&#10;  C 774.60 603.28 766.03 625.08 747.94 634.32&#10;  Q 737.98 639.41 727.11 637.75&#10;  Q 716.46 636.12 707.67 629.04&#10;  Q 704.04 626.11 698.18 619.60&#10;  Q 684.68 604.59 633.85 547.62&#10;  Q 630.31 543.64 629.68 541.79&#10;  C 628.21 537.47 630.12 534.66 632.67 530.95&#10;  Q 633.74 529.40 632.09 527.65&#10;  Q 621.15 516.04 611.76 505.10&#10;  Z&#10;  M 649.32 469.08&#10;  C 650.14 467.56 651.79 466.22 653.23 464.45&#10;  C 656.98 459.86 661.08 454.64 663.99 449.99&#10;  C 667.51 444.35 670.29 440.36 673.06 435.16&#10;  Q 682.57 417.29 688.15 398.18&#10;  Q 691.64 386.24 692.55 378.47&#10;  Q 693.01 374.48 693.57 371.12&#10;  Q 694.73 364.22 694.68 353.18&#10;  A 5.20 4.13 -46.6 0 1 694.75 352.37&#10;  Q 695.00 350.92 695.02 348.99&#10;  Q 695.20 332.12 692.12 314.48&#10;  Q 684.27 269.63 654.95 234.02&#10;  Q 621.46 193.34 571.52 175.43&#10;  C 561.04 171.67 551.87 168.84 541.87 167.60&#10;  Q 535.87 166.86 532.28 165.94&#10;  A 2.00 1.81 -21.2 0 1 531.81 165.76&#10;  Q 529.72 164.66 529.67 161.99&#10;  Q 529.48 150.47 529.56 139.00&#10;  Q 529.69 119.83 529.61 71.69&#10;  Q 529.60 62.70 527.83 59.11&#10;  Q 524.33 51.98 515.00 51.99&#10;  Q 374.66 52.03 109.75 52.03&#10;  Q 76.59 52.03 63.49 51.78&#10;  Q 54.97 51.62 50.51 58.90&#10;  C 48.21 62.65 48.33 67.69 48.34 72.50&#10;  Q 48.44 124.11 48.43 129.75&#10;  Q 48.37 162.44 48.51 517.65&#10;  C 48.51 522.33 48.17 530.12 48.70 536.19&#10;  Q 49.54 545.91 59.26 549.02&#10;  A 2.86 2.66 -33.1 0 0 60.07 549.16&#10;  Q 61.78 549.20 64.50 549.21&#10;  Q 101.29 549.32 481.27 549.27&#10;  Q 508.01 549.26 510.20 549.11&#10;  Q 514.24 548.83 515.26 548.24&#10;  Q 523.03 543.74 524.52 534.66&#10;  A 2.50 2.50 0.0 0 1 526.50 532.61&#10;  Q 530.94 531.71 535.24 531.20&#10;  C 562.00 528.00 586.94 518.04 610.07 503.48&#10;  A 2.24 2.22 53.0 0 1 612.92 503.89&#10;  L 634.51 528.17&#10;  A 2.25 2.25 0.0 0 1 634.68 530.93&#10;  Q 634.31 531.47 632.83 533.54&#10;  Q 628.60 539.45 633.57 544.90&#10;  Q 642.92 555.16 648.48 561.55&#10;  Q 651.63 565.18 652.75 566.29&#10;  C 655.63 569.17 657.50 572.08 660.47 575.06&#10;  Q 661.20 575.79 664.40 579.17&#10;  C 666.37 581.24 667.54 583.28 669.42 585.07&#10;  Q 671.06 586.63 673.27 589.25&#10;  Q 681.45 598.95 694.92 613.46&#10;  C 698.58 617.39 702.58 622.62 706.71 626.29&#10;  Q 717.54 635.91 733.06 636.43&#10;  Q 735.10 636.50 737.39 636.10&#10;  C 748.36 634.18 757.76 627.21 762.85 618.05&#10;  C 769.27 606.50 768.98 593.10 761.83 581.70&#10;  Q 759.92 578.67 755.46 574.08&#10;  Q 750.77 569.25 748.73 566.77&#10;  C 742.83 559.59 734.15 551.56 728.20 544.13&#10;  Q 727.21 542.89 715.70 530.46&#10;  Q 710.59 524.94 705.97 519.60&#10;  C 701.25 514.16 695.61 508.61 690.65 502.79&#10;  Q 687.04 498.57 684.64 496.53&#10;  Q 682.59 494.79 679.33 494.78&#10;  C 677.21 494.78 675.18 496.01 673.01 496.07&#10;  A 2.87 2.84 68.1 0 1 670.83 495.13&#10;  Q 662.72 486.17 661.40 484.95&#10;  C 658.03 481.81 655.18 477.57 651.10 473.92&#10;  Q 649.82 472.77 649.19 470.07&#10;  A 1.36 1.36 0.0 0 1 649.32 469.08&#10;  Z"/>
<path fill="#1c2526" d="&#10;  M 649.19 470.07&#10;  Q 649.82 472.77 651.10 473.92&#10;  C 655.18 477.57 658.03 481.81 661.40 484.95&#10;  Q 662.72 486.17 670.83 495.13&#10;  A 2.87 2.84 68.1 0 0 673.01 496.07&#10;  C 675.18 496.01 677.21 494.78 679.33 494.78&#10;  Q 682.59 494.79 684.64 496.53&#10;  Q 687.04 498.57 690.65 502.79&#10;  C 695.61 508.61 701.25 514.16 705.97 519.60&#10;  Q 710.59 524.94 715.70 530.46&#10;  Q 727.21 542.89 728.20 544.13&#10;  C 734.15 551.56 742.83 559.59 748.73 566.77&#10;  Q 750.77 569.25 755.46 574.08&#10;  Q 759.92 578.67 761.83 581.70&#10;  C 768.98 593.10 769.27 606.50 762.85 618.05&#10;  C 757.76 627.21 748.36 634.18 737.39 636.10&#10;  Q 735.10 636.50 733.06 636.43&#10;  Q 717.54 635.91 706.71 626.29&#10;  C 702.58 622.62 698.58 617.39 694.92 613.46&#10;  Q 681.45 598.95 673.27 589.25&#10;  Q 671.06 586.63 669.42 585.07&#10;  C 667.54 583.28 666.37 581.24 664.40 579.17&#10;  Q 661.20 575.79 660.47 575.06&#10;  C 657.50 572.08 655.63 569.17 652.75 566.29&#10;  Q 651.63 565.18 648.48 561.55&#10;  Q 642.92 555.16 633.57 544.90&#10;  Q 628.60 539.45 632.83 533.54&#10;  Q 634.31 531.47 634.68 530.93&#10;  A 2.25 2.25 0.0 0 0 634.51 528.17&#10;  L 612.92 503.89&#10;  A 2.24 2.22 53.0 0 0 610.07 503.48&#10;  C 586.94 518.04 562.00 528.00 535.24 531.20&#10;  Q 530.94 531.71 526.50 532.61&#10;  A 2.50 2.50 0.0 0 0 524.52 534.66&#10;  Q 523.03 543.74 515.26 548.24&#10;  Q 514.24 548.83 510.20 549.11&#10;  Q 508.01 549.26 481.27 549.27&#10;  Q 101.29 549.32 64.50 549.21&#10;  Q 61.78 549.20 60.07 549.16&#10;  A 2.86 2.66 -33.1 0 1 59.26 549.02&#10;  Q 49.54 545.91 48.70 536.19&#10;  C 48.17 530.12 48.51 522.33 48.51 517.65&#10;  Q 48.37 162.44 48.43 129.75&#10;  Q 48.44 124.11 48.34 72.50&#10;  C 48.33 67.69 48.21 62.65 50.51 58.90&#10;  Q 54.97 51.62 63.49 51.78&#10;  Q 76.59 52.03 109.75 52.03&#10;  Q 374.66 52.03 515.00 51.99&#10;  Q 524.33 51.98 527.83 59.11&#10;  Q 529.60 62.70 529.61 71.69&#10;  Q 529.69 119.83 529.56 139.00&#10;  Q 529.48 150.47 529.67 161.99&#10;  Q 529.72 164.66 531.81 165.76&#10;  A 2.00 1.81 -21.2 0 0 532.28 165.94&#10;  Q 535.87 166.86 541.87 167.60&#10;  C 551.87 168.84 561.04 171.67 571.52 175.43&#10;  Q 621.46 193.34 654.95 234.02&#10;  Q 684.27 269.63 692.12 314.48&#10;  Q 695.20 332.12 695.02 348.99&#10;  Q 695.00 350.92 694.75 352.37&#10;  A 5.20 4.13 -46.6 0 0 694.68 353.18&#10;  Q 694.73 364.22 693.57 371.12&#10;  Q 693.01 374.48 692.55 378.47&#10;  Q 691.64 386.24 688.15 398.18&#10;  Q 682.57 417.29 673.06 435.16&#10;  C 670.29 440.36 667.51 444.35 663.99 449.99&#10;  C 661.08 454.64 656.98 459.86 653.23 464.45&#10;  C 651.79 466.22 650.14 467.56 649.32 469.08&#10;  A 1.36 1.36 0.0 0 0 649.19 470.07&#10;  Z&#10;  M 441.20 524.27&#10;  Q 444.53 524.57 447.23 523.59&#10;  Q 448.18 523.20 449.24 523.48&#10;  A 0.45 0.45 0.0 0 0 449.80 523.15&#10;  L 449.80 523.13&#10;  A 0.42 0.42 0.0 0 0 449.52 522.63&#10;  Q 427.90 515.23 408.77 502.88&#10;  Q 404.60 500.19 403.78 499.50&#10;  Q 401.34 497.43 398.99 495.85&#10;  C 394.56 492.86 389.53 487.96 385.55 484.68&#10;  Q 383.31 482.83 379.38 478.90&#10;  Q 361.40 460.88 349.78 439.78&#10;  Q 342.87 427.24 338.52 416.03&#10;  Q 329.96 393.98 326.96 368.20&#10;  C 326.48 364.03 326.78 360.24 326.38 356.42&#10;  C 325.76 350.57 325.98 342.70 326.24 337.75&#10;  Q 326.39 334.92 327.50 324.41&#10;  Q 328.22 317.63 329.46 311.16&#10;  Q 337.18 271.12 362.09 238.56&#10;  Q 375.60 220.89 392.12 207.38&#10;  Q 437.80 170.01 497.36 165.50&#10;  C 499.92 165.31 502.59 165.64 504.86 164.84&#10;  A 4.06 4.05 -5.1 0 0 507.51 161.68&#10;  Q 507.82 159.82 507.83 157.50&#10;  Q 508.13 120.02 507.84 83.42&#10;  C 507.81 79.99 507.31 78.66 505.04 76.54&#10;  Q 503.78 75.36 499.66 75.31&#10;  Q 489.28 75.19 481.88 75.29&#10;  A 0.17 0.17 0.0 0 0 481.81 75.61&#10;  Q 482.57 76.00 483.52 76.04&#10;  Q 489.88 76.30 496.21 76.87&#10;  L 81.29 76.88&#10;  L 79.60 76.64&#10;  A 0.14 0.14 0.0 0 1 79.48 76.50&#10;  A 0.13 0.13 0.0 0 1 79.60 76.37&#10;  L 90.44 75.85&#10;  A 0.25 0.24 -2.6 0 0 90.67 75.61&#10;  L 90.67 75.59&#10;  A 0.28 0.27 87.5 0 0 90.41 75.35&#10;  L 76.43 75.25&#10;  A 1.56 1.39 -48.4 0 0 76.09 75.29&#10;  C 71.21 76.45 70.93 80.21 70.90 84.48&#10;  Q 70.81 100.38 70.91 300.30&#10;  Q 70.95 382.77 70.88 428.70&#10;  Q 70.88 435.05 70.93 436.82&#10;  C 71.16 443.55 70.76 450.47 70.84 457.08&#10;  Q 71.00 471.22 70.92 474.87&#10;  C 70.59 490.52 71.11 507.16 70.70 520.99&#10;  A 3.82 3.80 22.0 0 0 71.95 523.92&#10;  Q 74.79 526.52 78.76 526.45&#10;  C 97.51 526.09 116.33 526.67 132.74 526.48&#10;  C 148.78 526.30 166.74 526.76 183.99 526.58&#10;  Q 197.02 526.45 204.50 526.62&#10;  Q 205.60 526.65 234.75 526.56&#10;  Q 331.39 526.27 443.25 526.36&#10;  Q 444.66 526.36 448.83 525.76&#10;  A 0.36 0.35 -5.6 0 0 449.13 525.40&#10;  L 449.11 525.06&#10;  A 0.16 0.15 89.8 0 0 448.97 524.91&#10;  L 441.20 524.27&#10;  Z&#10;  M 367.78 416.46&#10;  Q 371.88 425.25 379.98 437.74&#10;  Q 380.81 439.02 381.12 439.79&#10;  A 2.95 2.84 -78.3 0 0 381.68 440.68&#10;  C 384.97 444.27 388.46 449.08 392.33 453.30&#10;  Q 421.63 485.24 462.93 498.91&#10;  Q 470.87 501.54 478.82 502.97&#10;  Q 488.07 504.63 495.01 505.39&#10;  Q 508.65 506.89 524.73 505.19&#10;  Q 528.21 504.82 534.23 504.03&#10;  Q 539.49 503.34 543.66 502.31&#10;  C 551.95 500.26 558.12 499.29 564.82 496.48&#10;  Q 577.30 491.24 581.44 489.20&#10;  Q 609.32 475.42 630.14 451.12&#10;  Q 655.55 421.46 664.92 383.53&#10;  C 665.77 380.07 665.96 377.15 666.68 374.18&#10;  Q 667.33 371.49 667.75 367.12&#10;  Q 668.35 361.03 668.63 354.76&#10;  Q 670.20 320.77 657.79 290.11&#10;  Q 653.45 279.38 647.47 269.70&#10;  Q 640.67 258.69 634.24 251.00&#10;  Q 614.76 227.69 587.86 212.21&#10;  C 570.88 202.43 551.37 196.08 531.10 193.61&#10;  Q 521.25 192.41 517.26 192.25&#10;  Q 467.33 190.22 425.40 215.97&#10;  C 420.97 218.68 417.89 221.24 413.73 224.22&#10;  Q 409.72 227.08 405.34 230.92&#10;  Q 393.84 240.99 384.21 253.20&#10;  Q 375.67 264.03 368.89 277.28&#10;  Q 365.38 284.15 362.33 292.55&#10;  Q 358.18 303.97 357.15 308.35&#10;  Q 353.89 322.24 352.75 336.58&#10;  Q 351.52 352.06 353.11 365.13&#10;  C 354.64 377.74 356.70 388.93 361.00 400.28&#10;  Q 365.00 410.87 365.39 411.67&#10;  Q 367.71 416.31 367.78 416.46&#10;  Z&#10;  M 680.95 517.43&#10;  L 653.63 542.03&#10;  A 0.31 0.31 0.0 0 0 653.61 542.47&#10;  L 717.56 613.49&#10;  A 18.50 18.26 48.0 0 0 743.51 615.02&#10;  L 744.15 614.44&#10;  A 18.50 18.26 48.0 0 0 745.34 588.48&#10;  L 681.39 517.45&#10;  A 0.31 0.31 0.0 0 0 680.95 517.43&#10;  Z"/>
<path fill="#000000" d="&#10;  M 81.29 76.88&#10;  L 75.94 77.06&#10;  A 1.58 1.56 -62.6 0 0 75.08 77.34&#10;  Q 74.03 78.08 73.24 79.32&#10;  A 1.80 1.78 -27.1 0 0 72.96 80.17&#10;  Q 72.71 83.47 72.71 83.50&#10;  Q 72.77 335.55 72.77 519.33&#10;  Q 72.77 521.86 73.62 522.90&#10;  Q 74.77 524.31 77.00 524.31&#10;  Q 259.11 524.24 441.20 524.27&#10;  L 448.97 524.91&#10;  A 0.16 0.15 89.8 0 1 449.11 525.06&#10;  L 449.13 525.40&#10;  A 0.36 0.35 -5.6 0 1 448.83 525.76&#10;  Q 444.66 526.36 443.25 526.36&#10;  Q 331.39 526.27 234.75 526.56&#10;  Q 205.60 526.65 204.50 526.62&#10;  Q 197.02 526.45 183.99 526.58&#10;  C 166.74 526.76 148.78 526.30 132.74 526.48&#10;  C 116.33 526.67 97.51 526.09 78.76 526.45&#10;  Q 74.79 526.52 71.95 523.92&#10;  A 3.82 3.80 22.0 0 1 70.70 520.99&#10;  C 71.11 507.16 70.59 490.52 70.92 474.87&#10;  Q 71.00 471.22 70.84 457.08&#10;  C 70.76 450.47 71.16 443.55 70.93 436.82&#10;  Q 70.88 435.05 70.88 428.70&#10;  Q 70.95 382.77 70.91 300.30&#10;  Q 70.81 100.38 70.90 84.48&#10;  C 70.93 80.21 71.21 76.45 76.09 75.29&#10;  A 1.56 1.39 -48.4 0 1 76.43 75.25&#10;  L 90.41 75.35&#10;  A 0.28 0.27 87.5 0 1 90.67 75.59&#10;  L 90.67 75.61&#10;  A 0.25 0.24 -2.6 0 1 90.44 75.85&#10;  L 79.60 76.37&#10;  A 0.13 0.13 0.0 0 0 79.48 76.50&#10;  A 0.14 0.14 0.0 0 0 79.60 76.64&#10;  L 81.29 76.88&#10;  Z"/>
<path fill="#000000" d="&#10;  M 447.23 523.59&#10;  C 413.63 512.25 384.12 489.83 362.42 462.08&#10;  C 343.64 438.05 330.85 407.93 326.49 378.29&#10;  Q 324.63 365.67 324.23 355.74&#10;  Q 323.34 333.65 327.45 312.14&#10;  Q 331.68 290.01 339.99 272.04&#10;  Q 348.86 252.83 361.93 236.17&#10;  Q 390.59 199.61 432.97 180.01&#10;  Q 466.80 164.36 503.36 163.68&#10;  A 2.21 2.20 3.2 0 0 505.50 161.77&#10;  Q 505.72 160.06 505.72 158.50&#10;  Q 505.69 98.30 505.75 80.83&#10;  C 505.76 76.23 500.05 76.81 496.21 76.87&#10;  Q 489.88 76.30 483.52 76.04&#10;  Q 482.57 76.00 481.81 75.61&#10;  A 0.17 0.17 0.0 0 1 481.88 75.29&#10;  Q 489.28 75.19 499.66 75.31&#10;  Q 503.78 75.36 505.04 76.54&#10;  C 507.31 78.66 507.81 79.99 507.84 83.42&#10;  Q 508.13 120.02 507.83 157.50&#10;  Q 507.82 159.82 507.51 161.68&#10;  A 4.06 4.05 -5.1 0 1 504.86 164.84&#10;  C 502.59 165.64 499.92 165.31 497.36 165.50&#10;  Q 437.80 170.01 392.12 207.38&#10;  Q 375.60 220.89 362.09 238.56&#10;  Q 337.18 271.12 329.46 311.16&#10;  Q 328.22 317.63 327.50 324.41&#10;  Q 326.39 334.92 326.24 337.75&#10;  C 325.98 342.70 325.76 350.57 326.38 356.42&#10;  C 326.78 360.24 326.48 364.03 326.96 368.20&#10;  Q 329.96 393.98 338.52 416.03&#10;  Q 342.87 427.24 349.78 439.78&#10;  Q 361.40 460.88 379.38 478.90&#10;  Q 383.31 482.83 385.55 484.68&#10;  C 389.53 487.96 394.56 492.86 398.99 495.85&#10;  Q 401.34 497.43 403.78 499.50&#10;  Q 404.60 500.19 408.77 502.88&#10;  Q 427.90 515.23 449.52 522.63&#10;  A 0.42 0.42 0.0 0 1 449.80 523.13&#10;  L 449.80 523.15&#10;  A 0.45 0.45 0.0 0 1 449.24 523.48&#10;  Q 448.18 523.20 447.23 523.59&#10;  Z"/>
<path fill="#000000" d="&#10;  M 219.70 190.39&#10;  L 203.34 175.40&#10;  A 0.83 0.81 -36.5 0 0 202.42 175.27&#10;  C 188.96 181.80 175.32 175.68 168.90 162.85&#10;  Q 166.80 158.65 166.69 153.68&#10;  Q 166.32 137.54 179.52 130.22&#10;  C 188.64 125.17 200.99 126.88 208.83 134.55&#10;  C 215.67 141.23 217.62 151.78 214.37 160.93&#10;  A 1.13 1.12 31.1 0 0 214.67 162.12&#10;  L 231.82 177.83&#10;  A 0.87 0.86 54.4 0 0 232.76 177.99&#10;  Q 243.97 173.26 254.97 177.66&#10;  A 0.74 0.74 0.0 0 0 255.74 177.52&#10;  L 277.92 157.30&#10;  A 0.96 0.96 0.0 0 0 278.23 156.53&#10;  C 278.14 154.96 277.36 153.42 276.97 151.70&#10;  C 274.20 139.49 279.57 126.88 290.10 120.42&#10;  Q 300.34 114.13 312.73 117.06&#10;  C 330.34 121.22 339.95 141.03 332.74 157.63&#10;  C 327.37 169.98 315.39 177.55 301.93 175.54&#10;  Q 295.44 174.57 290.36 171.26&#10;  A 0.98 0.97 40.8 0 0 289.19 171.34&#10;  L 268.06 190.13&#10;  A 1.31 1.31 0.0 0 0 267.90 191.92&#10;  Q 268.51 192.71 268.67 193.62&#10;  C 269.29 197.15 270.09 200.49 269.55 204.46&#10;  Q 267.50 219.42 254.02 225.75&#10;  Q 251.89 226.76 249.36 227.16&#10;  C 245.00 227.85 241.86 228.26 238.17 227.03&#10;  A 0.53 0.51 -61.6 0 0 237.59 227.21&#10;  L 221.21 249.43&#10;  A 1.68 1.67 43.2 0 0 221.28 251.50&#10;  C 235.62 268.42 226.31 292.59 205.83 298.52&#10;  Q 202.06 299.62 196.33 299.47&#10;  Q 191.70 299.35 187.01 297.35&#10;  C 175.22 292.32 166.76 279.58 168.78 266.39&#10;  Q 171.21 250.47 185.72 243.36&#10;  Q 188.04 242.22 194.24 241.33&#10;  C 197.42 240.87 200.41 241.89 203.37 242.01&#10;  A 1.26 1.25 19.7 0 0 204.40 241.53&#10;  L 222.62 217.87&#10;  A 0.46 0.45 45.7 0 0 222.62 217.32&#10;  C 217.16 209.81 215.53 199.45 219.84 191.22&#10;  A 0.69 0.69 0.0 0 0 219.70 190.39&#10;  Z&#10;  M 256.57 178.57&#10;  A 3.18 3.17 -52.5 0 1 253.04 179.04&#10;  Q 250.03 177.53 246.78 177.38&#10;  Q 239.81 177.05 234.88 179.01&#10;  A 2.83 2.79 38.3 0 1 233.41 179.17&#10;  Q 230.36 178.68 229.69 178.06&#10;  Q 220.38 169.39 213.95 163.66&#10;  A 3.30 3.29 28.3 0 1 212.95 160.35&#10;  Q 215.73 149.77 211.44 140.33&#10;  Q 210.30 137.80 208.46 136.05&#10;  Q 199.76 127.79 187.62 129.50&#10;  Q 181.99 130.29 179.94 131.47&#10;  Q 169.02 137.81 168.53 150.04&#10;  C 168.41 153.14 168.41 156.51 169.55 159.72&#10;  C 172.26 167.42 178.32 174.13 186.27 175.66&#10;  C 192.17 176.80 197.44 175.70 203.08 173.67&#10;  A 0.98 0.98 0.0 0 1 204.06 173.87&#10;  Q 209.74 178.96 214.76 184.31&#10;  Q 216.22 185.86 219.04 187.57&#10;  A 3.70 3.68 -69.7 0 1 220.76 191.33&#10;  Q 219.81 197.02 219.72 197.70&#10;  Q 218.31 208.39 223.93 217.00&#10;  A 1.56 1.56 0.0 0 1 223.95 218.67&#10;  C 221.61 222.46 218.02 226.02 215.45 229.48&#10;  Q 209.10 237.99 206.06 241.31&#10;  Q 203.99 243.56 201.02 243.18&#10;  C 189.98 241.75 178.62 246.41 173.67 256.66&#10;  C 169.69 264.89 169.25 274.85 173.41 282.83&#10;  Q 178.35 292.31 188.27 295.99&#10;  C 205.61 302.44 225.05 290.46 226.30 271.92&#10;  Q 226.99 261.58 220.45 252.78&#10;  A 1.82 1.78 19.7 0 1 220.14 252.14&#10;  Q 219.42 249.38 220.21 248.18&#10;  Q 223.49 243.23 236.18 226.56&#10;  A 1.97 1.95 -68.1 0 1 237.93 225.80&#10;  Q 245.04 226.52 252.08 224.88&#10;  A 4.75 4.56 -62.8 0 0 253.01 224.56&#10;  Q 267.46 217.67 268.11 201.12&#10;  Q 268.17 199.58 266.30 192.71&#10;  A 2.27 2.19 50.6 0 1 266.42 191.23&#10;  L 267.39 189.12&#10;  A 2.07 2.01 -9.6 0 1 267.91 188.41&#10;  L 284.39 173.46&#10;  A 0.86 0.86 0.0 0 0 284.50 173.35&#10;  L 286.77 170.72&#10;  A 1.03 1.01 -70.7 0 1 287.50 170.36&#10;  L 291.05 170.19&#10;  A 1.33 1.30 57.1 0 1 291.75 170.35&#10;  C 299.73 174.62 312.15 175.82 320.11 170.37&#10;  Q 335.71 159.70 332.79 140.50&#10;  C 331.11 129.50 323.09 121.72 312.78 118.64&#10;  C 308.88 117.48 302.48 117.65 299.22 118.37&#10;  Q 287.23 121.02 281.35 131.58&#10;  C 276.82 139.73 277.81 147.36 279.70 156.03&#10;  A 2.88 2.86 63.1 0 1 278.80 158.81&#10;  L 256.57 178.57&#10;  Z"/>
<path fill="#1c2526" d="&#10;  M 256.57 178.57&#10;  L 278.80 158.81&#10;  A 2.88 2.86 63.1 0 0 279.70 156.03&#10;  C 277.81 147.36 276.82 139.73 281.35 131.58&#10;  Q 287.23 121.02 299.22 118.37&#10;  C 302.48 117.65 308.88 117.48 312.78 118.64&#10;  C 323.09 121.72 331.11 129.50 332.79 140.50&#10;  Q 335.71 159.70 320.11 170.37&#10;  C 312.15 175.82 299.73 174.62 291.75 170.35&#10;  A 1.33 1.30 57.1 0 0 291.05 170.19&#10;  L 287.50 170.36&#10;  A 1.03 1.01 -70.7 0 0 286.77 170.72&#10;  L 284.50 173.35&#10;  A 0.86 0.86 0.0 0 1 284.39 173.46&#10;  L 267.91 188.41&#10;  A 2.07 2.01 -9.6 0 0 267.39 189.12&#10;  L 266.42 191.23&#10;  A 2.27 2.19 50.6 0 0 266.30 192.71&#10;  Q 268.17 199.58 268.11 201.12&#10;  Q 267.46 217.67 253.01 224.56&#10;  A 4.75 4.56 -62.8 0 1 252.08 224.88&#10;  Q 245.04 226.52 237.93 225.80&#10;  A 1.97 1.95 -68.1 0 0 236.18 226.56&#10;  Q 223.49 243.23 220.21 248.18&#10;  Q 219.42 249.38 220.14 252.14&#10;  A 1.82 1.78 19.7 0 0 220.45 252.78&#10;  Q 226.99 261.58 226.30 271.92&#10;  C 225.05 290.46 205.61 302.44 188.27 295.99&#10;  Q 178.35 292.31 173.41 282.83&#10;  C 169.25 274.85 169.69 264.89 173.67 256.66&#10;  C 178.62 246.41 189.98 241.75 201.02 243.18&#10;  Q 203.99 243.56 206.06 241.31&#10;  Q 209.10 237.99 215.45 229.48&#10;  C 218.02 226.02 221.61 222.46 223.95 218.67&#10;  A 1.56 1.56 0.0 0 0 223.93 217.00&#10;  Q 218.31 208.39 219.72 197.70&#10;  Q 219.81 197.02 220.76 191.33&#10;  A 3.70 3.68 -69.7 0 0 219.04 187.57&#10;  Q 216.22 185.86 214.76 184.31&#10;  Q 209.74 178.96 204.06 173.87&#10;  A 0.98 0.98 0.0 0 0 203.08 173.67&#10;  C 197.44 175.70 192.17 176.80 186.27 175.66&#10;  C 178.32 174.13 172.26 167.42 169.55 159.72&#10;  C 168.41 156.51 168.41 153.14 168.53 150.04&#10;  Q 169.02 137.81 179.94 131.47&#10;  Q 181.99 130.29 187.62 129.50&#10;  Q 199.76 127.79 208.46 136.05&#10;  Q 210.30 137.80 211.44 140.33&#10;  Q 215.73 149.77 212.95 160.35&#10;  A 3.30 3.29 28.3 0 0 213.95 163.66&#10;  Q 220.38 169.39 229.69 178.06&#10;  Q 230.36 178.68 233.41 179.17&#10;  A 2.83 2.79 38.3 0 0 234.88 179.01&#10;  Q 239.81 177.05 246.78 177.38&#10;  Q 250.03 177.53 253.04 179.04&#10;  A 3.18 3.17 -52.5 0 0 256.57 178.57&#10;  Z"/>
<path fill="#000000" d="&#10;  M 367.78 416.46&#10;  Q 367.71 416.31 365.39 411.67&#10;  Q 365.00 410.87 361.00 400.28&#10;  C 356.70 388.93 354.64 377.74 353.11 365.13&#10;  Q 351.52 352.06 352.75 336.58&#10;  Q 353.89 322.24 357.15 308.35&#10;  Q 358.18 303.97 362.33 292.55&#10;  Q 365.38 284.15 368.89 277.28&#10;  Q 375.67 264.03 384.21 253.20&#10;  Q 393.84 240.99 405.34 230.92&#10;  Q 409.72 227.08 413.73 224.22&#10;  C 417.89 221.24 420.97 218.68 425.40 215.97&#10;  Q 467.33 190.22 517.26 192.25&#10;  Q 521.25 192.41 531.10 193.61&#10;  C 551.37 196.08 570.88 202.43 587.86 212.21&#10;  Q 614.76 227.69 634.24 251.00&#10;  Q 640.67 258.69 647.47 269.70&#10;  Q 653.45 279.38 657.79 290.11&#10;  Q 670.20 320.77 668.63 354.76&#10;  Q 668.35 361.03 667.75 367.12&#10;  Q 667.33 371.49 666.68 374.18&#10;  C 665.96 377.15 665.77 380.07 664.92 383.53&#10;  Q 655.55 421.46 630.14 451.12&#10;  Q 609.32 475.42 581.44 489.20&#10;  Q 577.30 491.24 564.82 496.48&#10;  C 558.12 499.29 551.95 500.26 543.66 502.31&#10;  Q 539.49 503.34 534.23 504.03&#10;  Q 528.21 504.82 524.73 505.19&#10;  Q 508.65 506.89 495.01 505.39&#10;  Q 488.07 504.63 478.82 502.97&#10;  Q 470.87 501.54 462.93 498.91&#10;  Q 421.63 485.24 392.33 453.30&#10;  C 388.46 449.08 384.97 444.27 381.68 440.68&#10;  A 2.95 2.84 -78.3 0 1 381.12 439.79&#10;  Q 380.81 439.02 379.98 437.74&#10;  Q 371.88 425.25 367.78 416.46&#10;  Z&#10;  M 491.29 503.00&#10;  C 504.66 504.65 517.80 504.67 531.28 502.75&#10;  C 568.53 497.47 601.61 480.72 626.57 453.08&#10;  C 647.19 430.26 661.41 400.59 665.49 369.76&#10;  Q 671.28 325.98 654.70 287.85&#10;  Q 641.23 256.89 615.42 233.84&#10;  Q 590.37 211.47 557.25 200.98&#10;  Q 544.43 196.92 529.38 195.06&#10;  Q 514.32 193.20 500.90 194.01&#10;  Q 466.22 196.11 436.48 211.71&#10;  Q 405.83 227.77 385.22 254.52&#10;  Q 359.85 287.46 354.80 331.33&#10;  C 351.24 362.22 357.81 394.46 372.24 421.62&#10;  C 389.72 454.51 417.72 478.81 452.56 493.02&#10;  C 465.17 498.16 477.91 501.34 491.29 503.00&#10;  Z"/>
<path fill="#d74d3a" d="&#10;  M 509.59 233.43&#10;  C 520.71 233.42 528.55 239.95 534.06 249.49&#10;  Q 548.53 274.55 617.52 392.77&#10;  C 622.22 400.81 622.50 412.46 617.62 420.68&#10;  Q 612.45 429.40 602.91 432.76&#10;  Q 598.85 434.19 585.90 434.21&#10;  Q 553.37 434.27 509.87 434.33&#10;  Q 466.36 434.39 433.83 434.42&#10;  Q 420.88 434.44 416.82 433.02&#10;  Q 407.27 429.68 402.07 420.98&#10;  C 397.17 412.77 397.42 401.12 402.10 393.07&#10;  Q 470.76 274.66 485.16 249.56&#10;  C 490.64 240.00 498.47 233.45 509.59 233.43&#10;  Z&#10;  M 431.13 402.17&#10;  A 1.20 1.20 0.0 0 0 432.17 403.98&#10;  L 586.91 403.98&#10;  A 1.20 1.20 0.0 0 0 587.95 402.17&#10;  L 510.58 269.36&#10;  A 1.20 1.20 0.0 0 0 508.50 269.36&#10;  L 431.13 402.17&#10;  Z"/>
<path fill="#000000" d="&#10;  M 122.44 467.64&#10;  C 123.15 467.98 124.18 467.67 125.18 467.67&#10;  Q 224.22 467.64 323.24 467.66&#10;  Q 326.46 467.66 328.60 470.26&#10;  Q 330.03 471.99 330.14 476.05&#10;  C 330.25 479.85 330.44 483.89 327.18 485.90&#10;  Q 326.05 486.60 322.63 486.60&#10;  Q 170.98 486.56 110.50 486.60&#10;  Q 106.81 486.60 105.64 485.86&#10;  Q 103.66 484.60 103.66 481.50&#10;  Q 103.73 405.03 103.66 311.83&#10;  Q 103.66 308.28 104.36 307.34&#10;  C 106.94 303.88 113.59 304.70 118.00 305.10&#10;  A 2.74 2.72 60.0 0 1 118.99 305.37&#10;  Q 122.10 306.86 122.10 311.74&#10;  Q 122.12 414.69 122.13 467.15&#10;  A 0.55 0.54 13.1 0 0 122.44 467.64&#10;  Z&#10;  M 327.66 482.57&#10;  Q 328.47 480.82 328.33 475.47&#10;  C 328.14 468.63 323.71 469.38 317.92 469.37&#10;  Q 299.95 469.33 128.01 469.39&#10;  Q 125.27 469.39 122.52 469.20&#10;  Q 120.32 469.05 120.33 466.73&#10;  Q 120.36 429.87 120.37 321.75&#10;  Q 120.37 318.12 120.35 314.49&#10;  C 120.34 311.82 120.73 307.94 117.70 307.09&#10;  C 115.72 306.53 105.84 305.10 105.83 309.28&#10;  Q 105.79 392.05 105.83 481.74&#10;  Q 105.83 483.89 108.17 484.73&#10;  A 1.80 1.80 0.0 0 0 108.79 484.84&#10;  Q 225.20 484.89 322.50 484.80&#10;  Q 326.20 484.80 327.16 483.43&#10;  A 5.73 5.38 -16.6 0 0 327.66 482.57&#10;  Z"/>
<path fill="#1c2526" d="&#10;  M 327.16 483.43&#10;  Q 326.20 484.80 322.50 484.80&#10;  Q 225.20 484.89 108.79 484.84&#10;  A 1.80 1.80 0.0 0 1 108.17 484.73&#10;  Q 105.83 483.89 105.83 481.74&#10;  Q 105.79 392.05 105.83 309.28&#10;  C 105.84 305.10 115.72 306.53 117.70 307.09&#10;  C 120.73 307.94 120.34 311.82 120.35 314.49&#10;  Q 120.37 318.12 120.37 321.75&#10;  Q 120.36 429.87 120.33 466.73&#10;  Q 120.32 469.05 122.52 469.20&#10;  Q 125.27 469.39 128.01 469.39&#10;  Q 299.95 469.33 317.92 469.37&#10;  C 323.71 469.38 328.14 468.63 328.33 475.47&#10;  Q 328.47 480.82 327.66 482.57&#10;  A 5.73 5.38 -16.6 0 1 327.16 483.43&#10;  Z"/>
<path fill="#000000" d="&#10;  M 309.46 319.95&#10;  A 0.72 0.72 0.0 0 1 310.69 320.48&#10;  Q 310.07 334.63 309.65 340.09&#10;  C 308.93 349.58 309.00 354.64 308.87 363.78&#10;  A 4.94 4.84 56.1 0 1 308.56 365.44&#10;  Q 303.44 379.01 295.27 398.53&#10;  Q 290.00 411.14 283.54 421.32&#10;  C 276.03 433.14 263.61 445.66 248.59 435.17&#10;  Q 248.02 434.76 244.92 431.83&#10;  C 240.08 427.23 236.15 420.73 232.90 414.84&#10;  C 230.76 410.95 227.46 404.51 225.50 400.01&#10;  Q 218.13 383.08 214.81 375.66&#10;  Q 213.77 373.33 212.25 371.16&#10;  A 1.42 1.42 0.0 0 0 209.92 371.17&#10;  Q 207.35 374.87 205.20 380.12&#10;  Q 198.50 396.45 195.87 402.41&#10;  Q 186.92 422.66 175.38 435.90&#10;  Q 164.77 448.08 149.26 452.75&#10;  C 146.60 453.55 142.13 453.55 139.50 452.06&#10;  Q 134.04 448.96 135.34 442.66&#10;  Q 136.56 436.79 142.57 435.89&#10;  Q 152.10 434.47 159.18 427.71&#10;  C 168.80 418.54 175.33 407.03 180.54 394.84&#10;  Q 185.28 383.75 189.97 372.22&#10;  Q 192.15 366.88 196.38 360.42&#10;  C 205.37 346.67 221.09 350.97 227.46 364.04&#10;  Q 230.85 371.00 231.96 373.79&#10;  C 238.61 390.49 245.64 406.12 256.32 418.94&#10;  Q 259.55 422.82 263.34 419.13&#10;  Q 266.04 416.50 268.08 413.35&#10;  C 271.32 408.36 273.95 404.00 276.39 398.78&#10;  Q 283.28 384.03 288.84 368.88&#10;  C 292.26 359.56 295.72 348.45 300.50 338.14&#10;  Q 305.40 327.57 308.45 321.26&#10;  A 3.71 3.58 -11.1 0 1 309.14 320.27&#10;  L 309.46 319.95&#10;  Z&#10;  M 306.72 328.80&#10;  Q 305.20 331.39 300.41 342.71&#10;  Q 297.21 350.28 294.93 356.90&#10;  Q 286.44 381.59 276.50 402.26&#10;  Q 272.94 409.67 267.45 416.93&#10;  C 265.13 419.99 261.40 423.71 257.73 421.79&#10;  Q 255.26 420.49 252.97 417.62&#10;  C 246.72 409.77 241.59 399.68 237.06 389.96&#10;  Q 235.23 386.02 228.38 369.73&#10;  Q 225.07 361.86 221.78 358.61&#10;  Q 214.14 351.07 203.51 355.43&#10;  A 4.26 4.22 12.2 0 0 202.32 356.19&#10;  Q 198.41 359.78 197.71 360.97&#10;  Q 192.51 369.66 188.70 379.64&#10;  Q 186.05 386.57 185.11 388.77&#10;  Q 181.80 396.60 178.17 403.92&#10;  Q 172.31 415.73 163.83 425.35&#10;  Q 154.99 435.38 144.67 437.31&#10;  C 139.45 438.28 135.69 440.38 136.86 445.98&#10;  C 138.01 451.43 142.27 451.75 147.16 451.25&#10;  Q 150.10 450.95 153.20 449.65&#10;  Q 167.14 443.80 176.41 432.12&#10;  C 185.13 421.13 192.09 408.25 197.45 394.55&#10;  C 200.95 385.63 203.76 378.38 208.48 370.12&#10;  A 1.90 1.90 0.0 0 1 209.20 369.40&#10;  C 211.48 368.08 212.88 369.54 214.16 371.73&#10;  C 218.44 379.04 221.83 386.96 224.55 393.71&#10;  Q 225.46 395.96 231.50 408.60&#10;  Q 233.91 413.63 235.99 417.03&#10;  Q 239.79 423.23 241.25 425.05&#10;  Q 246.55 431.62 249.26 433.51&#10;  C 258.27 439.77 268.08 437.52 274.99 429.75&#10;  C 282.57 421.24 287.21 412.00 292.42 400.95&#10;  Q 295.23 394.99 306.02 367.52&#10;  Q 307.17 364.59 307.15 363.61&#10;  Q 306.99 355.69 307.62 345.93&#10;  C 308.01 339.82 307.80 332.94 308.09 329.23&#10;  A 0.74 0.74 0.0 0 0 306.72 328.80&#10;  Z"/>
<rect fill="#d74d3a" x="-15.37" y="-29.38" transform="translate(509.77,350.03) rotate(-0.1)" width="30.74" height="58.76" rx="4.71"/>
<path fill="#1c2526" d="&#10;  M 306.72 328.80&#10;  A 0.74 0.74 0.0 0 1 308.09 329.23&#10;  C 307.80 332.94 308.01 339.82 307.62 345.93&#10;  Q 306.99 355.69 307.15 363.61&#10;  Q 307.17 364.59 306.02 367.52&#10;  Q 295.23 394.99 292.42 400.95&#10;  C 287.21 412.00 282.57 421.24 274.99 429.75&#10;  C 268.08 437.52 258.27 439.77 249.26 433.51&#10;  Q 246.55 431.62 241.25 425.05&#10;  Q 239.79 423.23 235.99 417.03&#10;  Q 233.91 413.63 231.50 408.60&#10;  Q 225.46 395.96 224.55 393.71&#10;  C 221.83 386.96 218.44 379.04 214.16 371.73&#10;  C 212.88 369.54 211.48 368.08 209.20 369.40&#10;  A 1.90 1.90 0.0 0 0 208.48 370.12&#10;  C 203.76 378.38 200.95 385.63 197.45 394.55&#10;  C 192.09 408.25 185.13 421.13 176.41 432.12&#10;  Q 167.14 443.80 153.20 449.65&#10;  Q 150.10 450.95 147.16 451.25&#10;  C 142.27 451.75 138.01 451.43 136.86 445.98&#10;  C 135.69 440.38 139.45 438.28 144.67 437.31&#10;  Q 154.99 435.38 163.83 425.35&#10;  Q 172.31 415.73 178.17 403.92&#10;  Q 181.80 396.60 185.11 388.77&#10;  Q 186.05 386.57 188.70 379.64&#10;  Q 192.51 369.66 197.71 360.97&#10;  Q 198.41 359.78 202.32 356.19&#10;  A 4.26 4.22 12.2 0 1 203.51 355.43&#10;  Q 214.14 351.07 221.78 358.61&#10;  Q 225.07 361.86 228.38 369.73&#10;  Q 235.23 386.02 237.06 389.96&#10;  C 241.59 399.68 246.72 409.77 252.97 417.62&#10;  Q 255.26 420.49 257.73 421.79&#10;  C 261.40 423.71 265.13 419.99 267.45 416.93&#10;  Q 272.94 409.67 276.50 402.26&#10;  Q 286.44 381.59 294.93 356.90&#10;  Q 297.21 350.28 300.41 342.71&#10;  Q 305.20 331.39 306.72 328.80&#10;  Z"/>
<path fill="#d74d3a" d="&#10;  M 680.95 517.43&#10;  A 0.31 0.31 0.0 0 1 681.39 517.45&#10;  L 745.34 588.48&#10;  A 18.50 18.26 48.0 0 1 744.15 614.44&#10;  L 743.51 615.02&#10;  A 18.50 18.26 48.0 0 1 717.56 613.49&#10;  L 653.61 542.47&#10;  A 0.31 0.31 0.0 0 1 653.63 542.03&#10;  L 680.95 517.43&#10;  Z"/>
</svg>